<svg xmlns="http://www.w3.org/2000/svg" viewBox="0 0 153.13 100.43"><defs><style>.cls-1{fill:#fff;}</style></defs><title>Asset 3</title><g id="Layer_2" data-name="Layer 2"><g id="Layer_1-2" data-name="Layer 1"><path class="cls-1" d="M22.13,64.47a1.34,1.34,0,0,0-1.07.49,2.43,2.43,0,0,0,0,2.79,1.4,1.4,0,0,0,2.13,0,2,2,0,0,0,.43-1.41A2,2,0,0,0,23.19,65,1.35,1.35,0,0,0,22.13,64.47Z"/><path class="cls-1" d="M55.52,38.27a1.19,1.19,0,0,0,1-.48,2.21,2.21,0,0,0,.39-1.42,2.45,2.45,0,0,0-.38-1.53,1.2,1.2,0,0,0-1-.46,1.22,1.22,0,0,0-1,.46,2.05,2.05,0,0,0-.39,1.37,2.68,2.68,0,0,0,.28,1.42A1.21,1.21,0,0,0,55.52,38.27Z"/><path class="cls-1" d="M47.35,34.94a2.45,2.45,0,0,0,0,2.8,1.36,1.36,0,0,0,1.07.49,1.34,1.34,0,0,0,1.06-.49,2.45,2.45,0,0,0,0-2.8,1.36,1.36,0,0,0-1.06-.48A1.38,1.38,0,0,0,47.35,34.94Z"/><path class="cls-1" d="M126.77,40.29a.66.66,0,0,0-.32.57.79.79,0,0,0,.25.59.92.92,0,0,0,.65.25,1.45,1.45,0,0,0,.84-.29,1.08,1.08,0,0,0,.39-.54,3.38,3.38,0,0,0,.06-.79v-.33a8.57,8.57,0,0,1-1,.25A2.8,2.8,0,0,0,126.77,40.29Z"/><path class="cls-1" d="M39.54,64.39a1.12,1.12,0,0,0-.88.39,1.46,1.46,0,0,0-.34,1h2.43a1.6,1.6,0,0,0-.37-1.07A1.09,1.09,0,0,0,39.54,64.39Z"/><path class="cls-1" d="M63.74,64.43a1.23,1.23,0,0,0-1,.46,2.06,2.06,0,0,0-.39,1.36,2.33,2.33,0,0,0,.41,1.53,1.25,1.25,0,0,0,1,.5,1.18,1.18,0,0,0,.94-.46,2.34,2.34,0,0,0,.38-1.49,2.2,2.2,0,0,0-.39-1.43A1.21,1.21,0,0,0,63.74,64.43Z"/><path class="cls-1" d="M75.43,64.47a1.37,1.37,0,0,0-1.07.49,2.48,2.48,0,0,0,0,2.79,1.37,1.37,0,0,0,1.07.49,1.36,1.36,0,0,0,1.07-.49,2,2,0,0,0,.43-1.41A2,2,0,0,0,76.5,65,1.36,1.36,0,0,0,75.43,64.47Z"/><path class="cls-1" d="M88.9,64.39a1.13,1.13,0,0,0-.88.39,1.51,1.51,0,0,0-.34,1h2.43a1.5,1.5,0,0,0-.37-1.07A1.09,1.09,0,0,0,88.9,64.39Z"/><path class="cls-1" d="M106,64.39a1.12,1.12,0,0,0-.88.39,1.46,1.46,0,0,0-.34,1h2.43a1.6,1.6,0,0,0-.37-1.07A1.09,1.09,0,0,0,106,64.39Z"/><path class="cls-1" d="M1,25.73v49L76.56,99.39l75.58-24.68v-49L76.56,1ZM53.23,34a2.38,2.38,0,0,1,1.86-.82,2.31,2.31,0,0,1,1.78.86V30.94h1.62v8.47H57v-.9a2.47,2.47,0,0,1-.89.79,2.27,2.27,0,0,1-1,.25,2.33,2.33,0,0,1-1.81-.85,3.49,3.49,0,0,1-.76-2.38A3.42,3.42,0,0,1,53.23,34Zm-1.64,2.38a3.16,3.16,0,0,1-.9,2.31,3.05,3.05,0,0,1-2.27.91,3.5,3.5,0,0,1-1.61-.38,2.57,2.57,0,0,1-1.16-1.12,3.67,3.67,0,0,1-.4-1.79,3.27,3.27,0,0,1,.4-1.57,2.69,2.69,0,0,1,1.13-1.16,3.42,3.42,0,0,1,1.63-.4,3.08,3.08,0,0,1,3.18,3.2Zm-34,33.1H15.86V65.72H12.51v3.71H10.8V61h1.71v3.34h3.35V61h1.71Zm6.83-.78a3.05,3.05,0,0,1-2.27.91,3.5,3.5,0,0,1-1.61-.38,2.52,2.52,0,0,1-1.16-1.12,3.67,3.67,0,0,1-.4-1.79,3.3,3.3,0,0,1,.4-1.57,2.75,2.75,0,0,1,1.13-1.16,3.39,3.39,0,0,1,1.63-.39,3.06,3.06,0,0,1,2.28.9,3.11,3.11,0,0,1,.89,2.29A3.19,3.19,0,0,1,24.4,68.65Zm11.08.78H33.85V65.92a2.65,2.65,0,0,0-.16-1.18.78.78,0,0,0-.7-.35,1.09,1.09,0,0,0-.64.21,1.1,1.1,0,0,0-.43.61,4.3,4.3,0,0,0-.14,1.27v3H30.16V66.06a4.56,4.56,0,0,0-.09-1.16.73.73,0,0,0-.27-.38.79.79,0,0,0-.49-.13,1.23,1.23,0,0,0-.68.2,1.14,1.14,0,0,0-.43.59,4.16,4.16,0,0,0-.13,1.26v3H26.45V63.28h1.49v.84a2.42,2.42,0,0,1,1.92-1,2.08,2.08,0,0,1,1,.24,1.85,1.85,0,0,1,.71.73,2.83,2.83,0,0,1,.88-.73,2.14,2.14,0,0,1,1-.24,2.24,2.24,0,0,1,1.14.27,1.64,1.64,0,0,1,.7.81,3.49,3.49,0,0,1,.17,1.27ZM38.68,68a1.22,1.22,0,0,0,.94.4,1,1,0,0,0,.64-.21,1.25,1.25,0,0,0,.39-.67l1.62.27a2.64,2.64,0,0,1-1,1.36,2.9,2.9,0,0,1-1.69.46,2.73,2.73,0,0,1-2.37-1,3.57,3.57,0,0,1-.61-2.12,3.4,3.4,0,0,1,.8-2.39,2.62,2.62,0,0,1,2-.86,2.74,2.74,0,0,1,2.16.9,4,4,0,0,1,.76,2.77H38.29A1.64,1.64,0,0,0,38.68,68Zm10,1.48H46.93V61h1.72Zm1-20.22a14.39,14.39,0,0,0-.24,2.69,2.28,2.28,0,0,1-.79,1.76c-.39.44-.76.91-1.15,1.36a2.17,2.17,0,0,1-.3.23c0-.12-.08-.24-.11-.37-.17-.82-.33-1.65-.53-2.47a.71.71,0,0,0-.48,0,11.5,11.5,0,0,0-.66,1.37,13.77,13.77,0,0,0-.53,1.48c-.23.76-1,.94-1.5,1.32-.39.27-.8.51-1.21.75a.88.88,0,0,1-.33.07c0-.1,0-.22,0-.32a12.28,12.28,0,0,0,.45-1.86c0-.28-.27-.6-.42-.9a4,4,0,0,0-.85.52c-.58.64-1.13,1.3-1.65,2a1.75,1.75,0,0,1-1.29.65c-.61.1-1.21.28-1.82.41-.08,0-.18-.06-.27-.1s.08-.16.13-.24a19.25,19.25,0,0,0,1.14-1.83c.08-.15-.15-.54-.33-.71a.69.69,0,0,0-.64,0,30.34,30.34,0,0,1-2.66,1.74,3.77,3.77,0,0,1-1.69.1,13,13,0,0,1-1.37-.15.9.9,0,0,1-.24-.12.77.77,0,0,1,.14-.21c.56-.53,1.15-1,1.69-1.59a.59.59,0,0,0,.12-.56.62.62,0,0,0-.53-.28c-1.18.23-2.35.54-3.54.76a1.72,1.72,0,0,1-.88-.22c-.59-.25-1.16-.52-1.74-.79-.07,0-.11-.14-.17-.21l.24-.09c.7-.3,1.42-.58,2.09-.93.17-.09.36-.53.29-.61a1.26,1.26,0,0,0-.75-.51c-1.09-.08-2.19,0-3.28-.15-.33,0-.63-.4-.93-.63s-.87-.72-1.29-1.1a1.13,1.13,0,0,1-.15-.29,1.17,1.17,0,0,1,.28-.13c.75-.15,1.51-.27,2.25-.46.16,0,.4-.41.36-.48a1.3,1.3,0,0,0-.58-.51c-.94-.38-1.91-.67-2.83-1.09-.31-.14-.53-.55-.74-.87-.33-.52-.63-1.06-.93-1.6,0-.05,0-.14,0-.21a1.61,1.61,0,0,1,.31,0,14,14,0,0,0,1.8.36,1.42,1.42,0,0,0,.83-.37,1.06,1.06,0,0,0-.27-.65c-.67-.61-1.41-1.16-2.07-1.78a2.57,2.57,0,0,1-.69-1c-.22-.75-.33-1.53-.49-2.3a.14.14,0,0,1,0-.11.61.61,0,0,1,.24,0c.65.33,1.28.68,1.94,1a.74.74,0,0,0,.63-.08.59.59,0,0,0,0-.54c-.51-.87-1.12-1.68-1.56-2.58A3.34,3.34,0,0,1,20,34.24c0-.56.09-1.12.14-1.68a.7.7,0,0,1,.06-.19,1,1,0,0,1,.25.12c.59.51,1.17,1,1.76,1.54a.64.64,0,0,0,.38.12.75.75,0,0,0,.16-.48c-.2-1.1-.44-2.19-.62-3.3a1.84,1.84,0,0,1,.12-.89c.27-.75.59-1.48.89-2.22a.21.21,0,0,1,.12-.11.46.46,0,0,1,.17.14c.42.65.83,1.3,1.26,1.93a1.61,1.61,0,0,0,.48.32,1.69,1.69,0,0,0,.2-.51c0-.82,0-1.64.08-2.46A2.37,2.37,0,0,1,26,25.42,18.28,18.28,0,0,1,27.48,24c.06-.06.17-.13.24-.11s.12.14.12.23a8.63,8.63,0,0,0,.07,1.53c.09.34.43.61.66.91.21-.19.52-.34.62-.57.38-.89.63-1.83,1.06-2.69a2.84,2.84,0,0,1,1.06-.89c.54-.37,1.12-.69,1.68-1a.91.91,0,0,1,.23,0,.81.81,0,0,1,0,.22c-.16.82-.33,1.64-.46,2.46,0,.1.17.32.29.33s.56,0,.67-.1c.71-.81,1.34-1.69,2-2.51a1.19,1.19,0,0,1,.65-.3c.58-.14,1.16-.22,1.74-.34a3.78,3.78,0,0,0,.56-.21,1.79,1.79,0,0,1,.23,0,.58.58,0,0,1,0,.23c-.38.66-.79,1.29-1.12,2a.83.83,0,0,0,.17.67.6.6,0,0,0,.55.09,16,16,0,0,0,2.08-1.34A2.57,2.57,0,0,1,42.79,22c.52.07,1,.11,1.56.17a.8.8,0,0,1,.25.11.72.72,0,0,1-.14.26c-.46.42-1,.81-1.4,1.27a.85.85,0,0,0-.19.74.86.86,0,0,0,.71.38c1-.25,2-.61,3.05-.85.25-.06.59.16.87.28.61.26,1.21.54,1.81.83a1,1,0,0,1,.22.19,1.77,1.77,0,0,1-.22.16c-.47.22-.94.45-1.42.65a1,1,0,0,0-.72,1.24c.14.73-.29.79-.82.83a2.29,2.29,0,0,1-1.74-.66A5.83,5.83,0,0,0,43.36,27c-.38-.18-.75-.39-1.14-.54a10,10,0,0,0-1.31-.43c-.68-.18-1.37-.34-2.06-.49a1.91,1.91,0,0,0-.41,0,23.41,23.41,0,0,0-2.37,0,14.24,14.24,0,0,0-1.9.47l-.13,0c-.69.23-1.39.43-2.06.69a18.25,18.25,0,0,0-1.74.8,4.3,4.3,0,0,0-.81.52,18.32,18.32,0,0,0-1.94,1.67A17.24,17.24,0,0,0,25.72,32a10.41,10.41,0,0,0-.83,1.75,11.91,11.91,0,0,0-.46,1.43,15.73,15.73,0,0,1-.52,2.18c-.5,1.21-.12,2.45-.21,3.66a4.82,4.82,0,0,0,.44,1.58s0,.1,0,.15c.15.52.3,1.05.47,1.58s.32,1,.52,1.45a5.87,5.87,0,0,0,.55,1.09,12.92,12.92,0,0,0,1,1.24A20.55,20.55,0,0,0,28.31,50a11.11,11.11,0,0,0,1.89,1.37,16.28,16.28,0,0,0,2.24,1,10.75,10.75,0,0,0,1.68.48,11.38,11.38,0,0,0,1.44.24c1,.1,2,.23,2.94.25a7.79,7.79,0,0,0,1.78-.25,11.18,11.18,0,0,0,1.71-.5A13.32,13.32,0,0,0,43.22,52c.39-.2.8-.37,1.2-.55a.45.45,0,0,0,.11,0l1.21-.94c.55-.46,1.09-1,1.65-1.4a1.23,1.23,0,0,0,.47-1.12c0-1.21,0-1.21-1.21-1.21H44.77v0c-.94,0-1.88,0-2.82,0a.39.39,0,0,1-.28-.26c0-1.06,0-2.11,0-3.16,0-.09.13-.26.2-.26,2.63,0,5.25,0,7.88.06.65,0,1.31,0,2,0a.51.51,0,0,1,.32.35c.1,1,.16,2.09.26,3.12a3,3,0,0,0,.28,1.08,2.24,2.24,0,0,1-.2,2.26c-.23.44-.39.91-.6,1.35,0,.09-.18.14-.27.21s-.1-.16-.14-.24c-.36-.73-.69-1.46-1.08-2.17A1.08,1.08,0,0,0,49.65,49.21Zm9.53,20.22H57.55V65.92a2.47,2.47,0,0,0-.17-1.18.75.75,0,0,0-.69-.35,1.09,1.09,0,0,0-.64.21,1.17,1.17,0,0,0-.44.61,4.76,4.76,0,0,0-.13,1.27v3H53.86V66.06a4.56,4.56,0,0,0-.09-1.16.73.73,0,0,0-.27-.38.81.81,0,0,0-.49-.13,1.23,1.23,0,0,0-.68.2,1.14,1.14,0,0,0-.43.59,4.16,4.16,0,0,0-.13,1.26v3H50.14V63.28h1.5v.84a2.42,2.42,0,0,1,1.92-1,2.08,2.08,0,0,1,1,.24,1.85,1.85,0,0,1,.71.73,2.92,2.92,0,0,1,.87-.73,2.2,2.2,0,0,1,1-.24,2.28,2.28,0,0,1,1.15.27,1.69,1.69,0,0,1,.7.81,3.49,3.49,0,0,1,.17,1.27Zm.74-35.63a1.31,1.31,0,0,0,.7-.44,1.36,1.36,0,0,0,.22-.78h-.79V31h1.63v1.16a4.2,4.2,0,0,1-.12,1.12,1.74,1.74,0,0,1-.46.73,2.69,2.69,0,0,1-.86.51ZM66,68.71a2.33,2.33,0,0,1-1.82.85,2,2,0,0,1-.93-.2,3.11,3.11,0,0,1-.87-.69v3.09H60.75V63.28h1.51v.91a2.43,2.43,0,0,1,.8-.76,2.24,2.24,0,0,1,1.12-.28A2.34,2.34,0,0,1,66,64a3.39,3.39,0,0,1,.75,2.34A3.49,3.49,0,0,1,66,68.71ZM67.4,39a3.13,3.13,0,0,1-2.08.6,3.43,3.43,0,0,1-2-.51,2.34,2.34,0,0,1-1-1.38L64,37.41a1.18,1.18,0,0,0,.42.72,1.42,1.42,0,0,0,.9.25,1.61,1.61,0,0,0,.94-.23.51.51,0,0,0,.22-.44.41.41,0,0,0-.12-.3,1.28,1.28,0,0,0-.54-.22,8.76,8.76,0,0,1-2.49-.79A1.57,1.57,0,0,1,62.6,35a1.7,1.7,0,0,1,.63-1.34,2.89,2.89,0,0,1,2-.55,3.47,3.47,0,0,1,1.88.41,2.13,2.13,0,0,1,.84,1.22L66.37,35a1,1,0,0,0-.38-.55,1.4,1.4,0,0,0-.78-.19,1.77,1.77,0,0,0-.92.18.4.4,0,0,0-.18.33.37.37,0,0,0,.16.3,6.14,6.14,0,0,0,1.52.45,4.49,4.49,0,0,1,1.81.73,1.48,1.48,0,0,1,.51,1.2A1.87,1.87,0,0,1,67.4,39Zm4,25.92a1.44,1.44,0,0,0-.77-.27,1,1,0,0,0-.58.19,1.35,1.35,0,0,0-.37.68,9.83,9.83,0,0,0-.13,2.06v1.9H68V63.28h1.51v.88a2.65,2.65,0,0,1,.7-.82,1.27,1.27,0,0,1,.7-.19,2.09,2.09,0,0,1,1.07.3Zm6.26,3.78a3,3,0,0,1-2.26.91,3.47,3.47,0,0,1-1.61-.38,2.59,2.59,0,0,1-1.17-1.12,3.79,3.79,0,0,1-.4-1.79,3.42,3.42,0,0,1,.4-1.57,2.81,2.81,0,0,1,1.13-1.16,3.42,3.42,0,0,1,1.64-.39,3.06,3.06,0,0,1,2.28.9,3.4,3.4,0,0,1,0,4.6Zm5.32.78H81.56l-2.47-6.15h1.7L82,66.42l.33,1c.09-.27.15-.45.17-.53s.11-.35.18-.52l1.16-3.14h1.68ZM88,68a1.25,1.25,0,0,0,.94.4,1,1,0,0,0,.64-.21,1.25,1.25,0,0,0,.4-.67l1.62.27a2.65,2.65,0,0,1-1,1.36,2.9,2.9,0,0,1-1.69.46,2.75,2.75,0,0,1-2.37-1A3.56,3.56,0,0,1,86,66.4,3.4,3.4,0,0,1,86.78,64a2.63,2.63,0,0,1,2-.86,2.71,2.71,0,0,1,2.16.9,4,4,0,0,1,.76,2.77H87.65A1.64,1.64,0,0,0,88,68ZM102,69.43h-1.63V65.92a2.65,2.65,0,0,0-.16-1.18.77.77,0,0,0-.7-.35,1.09,1.09,0,0,0-.64.21,1.1,1.1,0,0,0-.43.61,4.3,4.3,0,0,0-.14,1.27v3H96.64V66.06a4.56,4.56,0,0,0-.09-1.16.73.73,0,0,0-.27-.38.79.79,0,0,0-.49-.13,1.23,1.23,0,0,0-.68.2,1.14,1.14,0,0,0-.43.59,4.16,4.16,0,0,0-.13,1.26v3H92.93V63.28h1.49v.84a2.42,2.42,0,0,1,1.92-1,2.08,2.08,0,0,1,1,.24,1.85,1.85,0,0,1,.71.73,2.83,2.83,0,0,1,.88-.73,2.14,2.14,0,0,1,1-.24,2.24,2.24,0,0,1,1.14.27,1.64,1.64,0,0,1,.7.81A3.49,3.49,0,0,1,102,65.5Zm3.2-1.48a1.22,1.22,0,0,0,.94.4,1,1,0,0,0,.64-.21,1.25,1.25,0,0,0,.39-.67l1.62.27a2.64,2.64,0,0,1-1,1.36,2.9,2.9,0,0,1-1.69.46,2.73,2.73,0,0,1-2.37-1,3.57,3.57,0,0,1-.61-2.12,3.4,3.4,0,0,1,.8-2.39,2.62,2.62,0,0,1,2-.86,2.74,2.74,0,0,1,2.16.9,4,4,0,0,1,.76,2.77h-4.07A1.64,1.64,0,0,0,105.16,68Zm13.9,1.61a2,2,0,0,1-.79-.14,1.26,1.26,0,0,1-.52-.38,1.5,1.5,0,0,1-.22-.64,6.82,6.82,0,0,1-.06-1.14V64.58h-.74v-1.3h.74V62.06l1.63-.94v2.16h1.11v1.3H119.1v2.48a5.61,5.61,0,0,0,0,.87.41.41,0,0,0,.14.21.51.51,0,0,0,.28.08,2,2,0,0,0,.65-.16l.14,1.26A3.3,3.3,0,0,1,119.06,69.56Zm3.87-.6a4.2,4.2,0,0,1-.12,1.12,1.84,1.84,0,0,1-.46.73,2.69,2.69,0,0,1-.86.51l-.32-.67a1.38,1.38,0,0,0,.7-.45,1.35,1.35,0,0,0,.22-.77h-.79V67.8h1.63Zm9.3.47h-4.48V63.12H129v5.23h3.19Zm6.94-5.59a2.78,2.78,0,0,1,2.15-.88,2.66,2.66,0,0,1,1.9.69,2.53,2.53,0,0,1,.65,1.17l-1.27.3a1.41,1.41,0,0,0-.47-.78,1.35,1.35,0,0,0-.87-.28,1.47,1.47,0,0,0-1.15.5,2.53,2.53,0,0,0-.44,1.65,2.7,2.7,0,0,0,.43,1.72,1.42,1.42,0,0,0,1.13.51,1.28,1.28,0,0,0,.88-.33,1.9,1.9,0,0,0,.53-1l1.24.39a2.75,2.75,0,0,1-.95,1.55,2.67,2.67,0,0,1-1.69.5,2.72,2.72,0,0,1-2.08-.86,3.34,3.34,0,0,1-.81-2.37A3.43,3.43,0,0,1,139.17,63.84Zm-1.51,5.59h-4.48V63.12h1.28v5.23h3.2Zm-5.83-32.87h1.51v.9a2.46,2.46,0,0,1,2-1,2.38,2.38,0,0,1,1,.2,1.71,1.71,0,0,1,.68.49,1.83,1.83,0,0,1,.31.68,5.13,5.13,0,0,1,.09,1.1V42.7H135.8V39.57a5.47,5.47,0,0,0-.1-1.29,1,1,0,0,0-.34-.45,1,1,0,0,0-.57-.16,1.23,1.23,0,0,0-.75.23,1.11,1.11,0,0,0-.46.61,5,5,0,0,0-.13,1.41V42.7h-1.62Zm-3.42,1.31a1.36,1.36,0,0,0-.87-.2,1.12,1.12,0,0,0-.68.17,1.16,1.16,0,0,0-.39.6L125,38.17a2.33,2.33,0,0,1,.86-1.32,3.14,3.14,0,0,1,1.8-.43,3.88,3.88,0,0,1,1.62.26,1.68,1.68,0,0,1,.75.65,3.45,3.45,0,0,1,.22,1.46l0,1.9a5.86,5.86,0,0,0,.08,1.19,3.37,3.37,0,0,0,.29.82H129a4.89,4.89,0,0,1-.15-.48l-.06-.19a3,3,0,0,1-.89.61,2.51,2.51,0,0,1-1,.2,2.09,2.09,0,0,1-1.49-.51,1.74,1.74,0,0,1-.55-1.3,1.8,1.8,0,0,1,.25-.93,1.71,1.71,0,0,1,.7-.63,5.38,5.38,0,0,1,1.29-.37,9.82,9.82,0,0,0,1.58-.4v-.17A.84.84,0,0,0,128.41,37.87ZM114.6,36.56h1.5v.84a2.4,2.4,0,0,1,1.91-1,2,2,0,0,1,1,.25,1.87,1.87,0,0,1,.72.73,2.78,2.78,0,0,1,.87-.73,2,2,0,0,1,1-.25,2.24,2.24,0,0,1,1.14.28,1.6,1.6,0,0,1,.7.81,3.28,3.28,0,0,1,.17,1.27V42.7H122V39.19a2.63,2.63,0,0,0-.17-1.18.76.76,0,0,0-.69-.34,1.13,1.13,0,0,0-1.08.82,4.29,4.29,0,0,0-.13,1.26v3h-1.63V39.34a4.56,4.56,0,0,0-.09-1.16.73.73,0,0,0-.26-.39.93.93,0,0,0-.5-.12,1.18,1.18,0,0,0-.68.2,1.12,1.12,0,0,0-.43.58,4.65,4.65,0,0,0-.13,1.27v3H114.6Zm.07,26.78a1.6,1.6,0,0,1,.67.49,1.82,1.82,0,0,1,.32.69,5,5,0,0,1,.09,1.09v3.82h-1.62V66.29A4.66,4.66,0,0,0,114,65a.89.89,0,0,0-.34-.46.93.93,0,0,0-.56-.16,1.36,1.36,0,0,0-.76.23,1.16,1.16,0,0,0-.46.61,5.54,5.54,0,0,0-.12,1.41v2.79h-1.63V63.28h1.51v.91a2.53,2.53,0,0,1,3-.85ZM111.55,40.7a1.28,1.28,0,0,0-.54-.22,8.76,8.76,0,0,1-2.49-.79,1.57,1.57,0,0,1-.73-1.38,1.7,1.7,0,0,1,.63-1.34,2.89,2.89,0,0,1,2-.55,3.47,3.47,0,0,1,1.88.41,2.13,2.13,0,0,1,.84,1.22l-1.53.28a1,1,0,0,0-.38-.55,1.4,1.4,0,0,0-.78-.19,1.77,1.77,0,0,0-.92.18.4.4,0,0,0-.18.33.37.37,0,0,0,.16.3,6.14,6.14,0,0,0,1.52.45,4.49,4.49,0,0,1,1.81.73,1.48,1.48,0,0,1,.51,1.2,1.87,1.87,0,0,1-.71,1.46,3.14,3.14,0,0,1-2.09.6,3.42,3.42,0,0,1-2-.51,2.34,2.34,0,0,1-1-1.38l1.63-.25a1.18,1.18,0,0,0,.42.72,1.41,1.41,0,0,0,.89.25,1.64,1.64,0,0,0,1-.23.52.52,0,0,0,.22-.44A.41.41,0,0,0,111.55,40.7Zm-7.29-5.36,1.64-1v2.17H107v1.3H105.9v2.47a6.58,6.58,0,0,0,0,.88.35.35,0,0,0,.14.2.45.45,0,0,0,.28.09,2.28,2.28,0,0,0,.65-.16l.14,1.26a3.28,3.28,0,0,1-1.28.24,2.24,2.24,0,0,1-.8-.14,1.16,1.16,0,0,1-.51-.39,1.41,1.41,0,0,1-.23-.63,6.82,6.82,0,0,1-.06-1.14V37.86h-.74v-1.3h.74Zm-1,1.22v1.28h-1.22V42.7h-1.62V37.84h-.91V36.56h.91V36.1a3.12,3.12,0,0,1,.16-1.16,1.3,1.3,0,0,1,.61-.62,2.32,2.32,0,0,1,1.12-.24,4.54,4.54,0,0,1,1.36.21l-.22,1.13a3.33,3.33,0,0,0-.75-.09.7.7,0,0,0-.51.17,1,1,0,0,0-.15.63v.43ZM77.43,26.78c0-.05.07-.12.1-.12a.27.27,0,0,1,.17.1c.44.67.86,1.34,1.31,2a1.56,1.56,0,0,0,.45.28,1.38,1.38,0,0,0,.2-.45c0-.42,0-.85,0-1.28h-.08a10.12,10.12,0,0,1,.35-1.93c.13-.37.57-.63.87-.93s.61-.65.93-1c.06-.07.17-.09.26-.14a1.13,1.13,0,0,1,.12.25,9.36,9.36,0,0,0,.11,1.68c.06.29.41.51.63.75a3.11,3.11,0,0,0,.69-.77c.35-.84.6-1.71.94-2.55a1.45,1.45,0,0,1,.61-.56c.69-.44,1.41-.85,2.11-1.26a.93.93,0,0,1,.24,0,.91.91,0,0,1,0,.23c-.15.81-.31,1.63-.43,2.44,0,.1.21.33.33.33A.9.9,0,0,0,88,23.7a9.52,9.52,0,0,0,1.24-1.6,3.16,3.16,0,0,1,2.68-1.44,7.26,7.26,0,0,0,1-.26.81.81,0,0,1,.22,0c0,.07,0,.16,0,.21-.33.6-.71,1.18-1,1.81a1,1,0,0,0,.09.82c.07.11.53.1.71,0,.91-.55,1.75-1.21,2.69-1.68a3.1,3.1,0,0,1,1.45,0c.51,0,1,.1,1.54.16.07,0,.19.05.19.09a.31.31,0,0,1-.08.24,13.42,13.42,0,0,0-1.25,1.13,3.33,3.33,0,0,0-.44.93c.31.12.66.39.93.33,1-.21,1.91-.54,2.86-.82a.39.39,0,0,1,.28,0c.85.38,1.69.78,2.53,1.18,0,0,.11.1.1.12a.24.24,0,0,1-.13.15c-.44.2-.87.41-1.31.59a1.37,1.37,0,0,0-1,1.62c.07.4-.11.47-.5.52C99.63,28,99,27,98,26.63c-1.17-.39-2.35-.77-3.53-1.13a10.56,10.56,0,0,0-4.44-.15,13.31,13.31,0,0,0-2.7.66,12.77,12.77,0,0,0-5.64,3.81,13.7,13.7,0,0,0-2.94,12.55,13.35,13.35,0,0,0,6.61,8.5,12.91,12.91,0,0,0,6.33,1.65,13.43,13.43,0,0,0,10.55-4.72.9.9,0,0,1,.47-.22,2.27,2.27,0,0,1,.45,0c.74,0,.86.18.75.94a14.45,14.45,0,0,0-.27,2.77,2.39,2.39,0,0,1-.81,1.85c-.45.46-.82,1-1.23,1.48,0,.07-.15.09-.23.14a1,1,0,0,1-.13-.3c-.11-.76-.19-1.53-.33-2.28,0-.18-.27-.32-.42-.48-.16.18-.39.33-.48.54a22.13,22.13,0,0,0-.9,2.39c-.24.88-1,1-1.65,1.48a11.63,11.63,0,0,1-1,.67,1.16,1.16,0,0,1-.37.07,2.06,2.06,0,0,1,0-.35,20.25,20.25,0,0,0,.4-2.06c0-.2-.24-.46-.42-.64s-.36.1-.47.23c-.75.83-1.48,1.69-2.23,2.52a1.3,1.3,0,0,1-.58.31c-.76.2-1.53.37-2.3.55a1,1,0,0,1-.24,0c0-.08,0-.19,0-.25a20.25,20.25,0,0,0,1.15-1.8c.1-.19-.06-.59-.22-.8s-.48-.14-.64,0c-.9.55-1.74,1.19-2.66,1.71a2.29,2.29,0,0,1-1.2.16c-.64,0-1.28-.1-1.92-.17a.27.27,0,0,1-.19-.13s0-.15.11-.2c.56-.52,1.14-1,1.68-1.56a.69.69,0,0,0,.15-.6.72.72,0,0,0-.58-.29c-.72.08-1.44.21-2.15.36a8.88,8.88,0,0,1-1.14.37,2.88,2.88,0,0,1-1.15-.23c-.58-.21-1.14-.49-1.71-.75-.06,0-.09-.12-.13-.18l.19-.09c.74-.33,1.49-.64,2.21-1,.14-.08.27-.5.21-.56a1.46,1.46,0,0,0-.78-.5c-1.1-.09-2.22,0-3.3-.16-.38,0-.7-.51-1-.79s-.73-.58-1.07-.89a1,1,0,0,1-.17-.35,2.47,2.47,0,0,1,.29-.1c.75-.15,1.51-.28,2.25-.47.15,0,.38-.44.34-.49a1.78,1.78,0,0,0-.66-.52c-.94-.37-1.92-.66-2.83-1.09-.32-.15-.49-.61-.71-.94-.3-.48-.58-1-.87-1.47a.64.64,0,0,1,0-.24,1.61,1.61,0,0,1,.31,0,14.13,14.13,0,0,0,1.81.36,1.34,1.34,0,0,0,.82-.36s-.09-.47-.25-.61a24.75,24.75,0,0,0-2.13-1.83,1.77,1.77,0,0,1-.7-1.22c-.13-.7-.28-1.39-.42-2.08a.44.44,0,0,1,0-.16,1.1,1.1,0,0,1,.26.06c.63.32,1.25.67,1.9,1a.69.69,0,0,0,.61,0,.58.58,0,0,0,.07-.56c-.51-.87-1.12-1.69-1.57-2.59a3.22,3.22,0,0,1-.12-1.43c0-.58.08-1.15.13-1.72a1.72,1.72,0,0,1,.07-.21.84.84,0,0,1,.25.13c.6.51,1.18,1,1.77,1.56.09.07.3.15.34.12a.53.53,0,0,0,.17-.39c-.12-.68-.29-1.34-.41-2a3.64,3.64,0,0,1,0-2.54C77,28.11,77.17,27.43,77.43,26.78ZM96.82,37.87a1.37,1.37,0,0,0-.88-.2,1.09,1.09,0,0,0-.67.17,1.11,1.11,0,0,0-.4.6l-1.47-.27a2.32,2.32,0,0,1,.85-1.32,3.2,3.2,0,0,1,1.81-.43,3.94,3.94,0,0,1,1.62.26,1.68,1.68,0,0,1,.75.65,3.48,3.48,0,0,1,.21,1.46v1.9a6.94,6.94,0,0,0,.07,1.19,3.43,3.43,0,0,0,.3.82H97.39a4.36,4.36,0,0,1-.16-.48c0-.09,0-.16,0-.19a2.87,2.87,0,0,1-.9.61,2.43,2.43,0,0,1-1,.2,2.09,2.09,0,0,1-1.49-.51,1.75,1.75,0,0,1,.4-2.86,5.38,5.38,0,0,1,1.29-.37,10.12,10.12,0,0,0,1.58-.4v-.17A.84.84,0,0,0,96.82,37.87Zm-5.63-1.25a1.27,1.27,0,0,1,.7-.2,2.1,2.1,0,0,1,1.07.31l-.5,1.42a1.44,1.44,0,0,0-.77-.27.9.9,0,0,0-.58.19,1.31,1.31,0,0,0-.37.68,9.83,9.83,0,0,0-.13,2.06V42.7H89V36.56h1.51v.88A2.53,2.53,0,0,1,91.19,36.62Z"/><path class="cls-1" d="M95.17,40.29a.67.67,0,0,0-.31.57.79.79,0,0,0,.25.59.92.92,0,0,0,.65.25,1.45,1.45,0,0,0,.84-.29,1.06,1.06,0,0,0,.38-.54,2.78,2.78,0,0,0,.07-.79v-.33a8.57,8.57,0,0,1-1,.25A2.89,2.89,0,0,0,95.17,40.29Z"/><path d="M50.28,49.07c.39.71.72,1.44,1.08,2.17,0,.08.09.16.14.24s.23-.12.27-.21c.21-.44.37-.91.6-1.35a2.24,2.24,0,0,0,.2-2.26,3,3,0,0,1-.28-1.08c-.1-1-.16-2.08-.26-3.12a.51.51,0,0,0-.32-.35c-.65,0-1.31,0-2,0-2.63,0-5.25,0-7.88-.06-.07,0-.2.17-.2.26,0,1,0,2.1,0,3.16a.39.39,0,0,0,.28.26c.94,0,1.88,0,2.82,0v0h1.88c1.21,0,1.18,0,1.21,1.21a1.23,1.23,0,0,1-.47,1.12c-.56.45-1.1.94-1.65,1.4l-1.21.94a.45.45,0,0,1-.11,0c-.4.18-.81.35-1.2.55a13.32,13.32,0,0,1-1.23.66,11.18,11.18,0,0,1-1.71.5,7.79,7.79,0,0,1-1.78.25c-1,0-2-.15-2.94-.25a11.38,11.38,0,0,1-1.44-.24,10.75,10.75,0,0,1-1.68-.48,16.28,16.28,0,0,1-2.24-1A11.11,11.11,0,0,1,28.31,50a20.55,20.55,0,0,1-1.62-1.86,12.92,12.92,0,0,1-1-1.24,5.87,5.87,0,0,1-.55-1.09c-.2-.48-.37-1-.52-1.45s-.32-1.06-.47-1.58c0,0,0-.1,0-.15a4.82,4.82,0,0,1-.44-1.58c.09-1.21-.29-2.45.21-3.66a15.73,15.73,0,0,0,.52-2.18,11.91,11.91,0,0,1,.46-1.43A10.41,10.41,0,0,1,25.72,32a17.24,17.24,0,0,1,1.77-2.31,18.32,18.32,0,0,1,1.94-1.67,4.3,4.3,0,0,1,.81-.52,18.25,18.25,0,0,1,1.74-.8c.67-.26,1.37-.46,2.06-.69l.13,0a14.24,14.24,0,0,1,1.9-.47,23.41,23.41,0,0,1,2.37,0,1.91,1.91,0,0,1,.41,0c.69.15,1.38.31,2.06.49a10,10,0,0,1,1.31.43c.39.15.76.36,1.14.54a5.83,5.83,0,0,1,1.25.62,2.29,2.29,0,0,0,1.74.66c.53,0,1-.1.82-.83a1,1,0,0,1,.72-1.24c.48-.2,1-.43,1.42-.65a1.77,1.77,0,0,0,.22-.16,1,1,0,0,0-.22-.19c-.6-.29-1.2-.57-1.81-.83-.28-.12-.62-.34-.87-.28-1,.24-2,.6-3.05.85a.86.86,0,0,1-.71-.38.85.85,0,0,1,.19-.74c.43-.46.94-.85,1.4-1.27a.72.72,0,0,0,.14-.26.8.8,0,0,0-.25-.11c-.52-.06-1-.1-1.56-.17a2.57,2.57,0,0,0-2.18.43,16,16,0,0,1-2.08,1.34.6.6,0,0,1-.55-.09.83.83,0,0,1-.17-.67c.33-.68.74-1.31,1.12-2a.58.58,0,0,0,0-.23,1.79,1.79,0,0,0-.23,0,3.78,3.78,0,0,1-.56.21c-.58.12-1.16.2-1.74.34a1.19,1.19,0,0,0-.65.3c-.7.82-1.33,1.7-2,2.51-.11.14-.45.13-.67.1s-.31-.23-.29-.33c.13-.82.3-1.64.46-2.46a.81.81,0,0,0,0-.22.91.91,0,0,0-.23,0c-.56.33-1.14.65-1.68,1a2.84,2.84,0,0,0-1.06.89c-.43.86-.68,1.8-1.06,2.69-.1.23-.41.38-.62.57-.23-.3-.57-.57-.66-.91a8.63,8.63,0,0,1-.07-1.53c0-.09-.06-.22-.12-.23s-.18,0-.24.11A18.28,18.28,0,0,0,26,25.42a2.37,2.37,0,0,0-.55,1.15c-.09.82,0,1.64-.08,2.46a1.69,1.69,0,0,1-.2.51,1.61,1.61,0,0,1-.48-.32c-.43-.63-.84-1.28-1.26-1.93a.46.46,0,0,0-.17-.14.21.21,0,0,0-.12.11c-.3.74-.62,1.47-.89,2.22a1.84,1.84,0,0,0-.12.89c.18,1.11.42,2.2.62,3.3a.75.75,0,0,1-.16.48.64.64,0,0,1-.38-.12c-.59-.5-1.17-1-1.76-1.54a1,1,0,0,0-.25-.12.7.7,0,0,0-.06.19c-.05.56-.13,1.12-.14,1.68a3.34,3.34,0,0,0,.13,1.49c.44.9,1.05,1.71,1.56,2.58a.59.59,0,0,1,0,.54.74.74,0,0,1-.63.08c-.66-.3-1.29-.65-1.94-1a.61.61,0,0,0-.24,0,.14.14,0,0,0,0,.11c.16.77.27,1.55.49,2.3a2.57,2.57,0,0,0,.69,1c.66.62,1.4,1.17,2.07,1.78a1.06,1.06,0,0,1,.27.65,1.42,1.42,0,0,1-.83.37,14,14,0,0,1-1.8-.36,1.61,1.61,0,0,0-.31,0c0,.07,0,.16,0,.21.3.54.6,1.08.93,1.6.21.32.43.73.74.87.92.42,1.89.71,2.83,1.09a1.3,1.3,0,0,1,.58.51c0,.07-.2.44-.36.48-.74.19-1.5.31-2.25.46a1.17,1.17,0,0,0-.28.13,1.13,1.13,0,0,0,.15.29c.42.38.85.74,1.29,1.1s.6.6.93.63c1.09.11,2.19.07,3.28.15a1.26,1.26,0,0,1,.75.51c.07.08-.12.52-.29.61-.67.35-1.39.63-2.09.93l-.24.09c.06.07.1.17.17.21.58.27,1.15.54,1.74.79a1.72,1.72,0,0,0,.88.22c1.19-.22,2.36-.53,3.54-.76a.62.62,0,0,1,.53.28.59.59,0,0,1-.12.56c-.54.55-1.13,1.06-1.69,1.59a.77.77,0,0,0-.14.21.9.9,0,0,0,.24.12,13,13,0,0,0,1.37.15,3.77,3.77,0,0,0,1.69-.1A30.34,30.34,0,0,0,36.29,55a.69.69,0,0,1,.64,0c.18.17.41.56.33.71a19.25,19.25,0,0,1-1.14,1.83c0,.08-.09.16-.13.24s.19.12.27.1c.61-.13,1.21-.31,1.82-.41a1.75,1.75,0,0,0,1.29-.65c.52-.69,1.07-1.35,1.65-2a4,4,0,0,1,.85-.52c.15.3.45.62.42.9a12.28,12.28,0,0,1-.45,1.86c0,.1,0,.22,0,.32a.88.88,0,0,0,.33-.07c.41-.24.82-.48,1.21-.75.55-.38,1.27-.56,1.5-1.32a13.77,13.77,0,0,1,.53-1.48,11.5,11.5,0,0,1,.66-1.37.71.71,0,0,1,.48,0c.2.82.36,1.65.53,2.47,0,.13.07.25.11.37a2.17,2.17,0,0,0,.3-.23c.39-.45.76-.92,1.15-1.36a2.28,2.28,0,0,0,.79-1.76,14.39,14.39,0,0,1,.24-2.69A1.08,1.08,0,0,1,50.28,49.07Z"/><path d="M76.63,31.27c.12.68.29,1.34.41,2a.53.53,0,0,1-.17.39s-.25,0-.34-.12c-.59-.52-1.17-1.05-1.77-1.56a.84.84,0,0,0-.25-.13,1.72,1.72,0,0,0-.07.21c0,.57-.13,1.14-.13,1.72a3.22,3.22,0,0,0,.12,1.43c.45.9,1.06,1.72,1.57,2.59a.58.58,0,0,1-.07.56.69.69,0,0,1-.61,0c-.65-.29-1.27-.64-1.9-1a1.1,1.1,0,0,0-.26-.06.44.44,0,0,0,0,.16c.14.69.29,1.38.42,2.08a1.77,1.77,0,0,0,.7,1.22,24.75,24.75,0,0,1,2.13,1.83c.16.14.3.57.25.61a1.34,1.34,0,0,1-.82.36A14.13,14.13,0,0,1,74,43.31a1.61,1.61,0,0,0-.31,0,.64.64,0,0,0,0,.24c.29.49.57,1,.87,1.47.22.33.39.79.71.94.91.43,1.89.72,2.83,1.09a1.78,1.78,0,0,1,.66.52c0,.05-.19.45-.34.49-.74.19-1.5.32-2.25.47a2.47,2.47,0,0,0-.29.1,1,1,0,0,0,.17.35c.34.31.71.6,1.07.89s.66.75,1,.79c1.08.14,2.2.07,3.3.16a1.46,1.46,0,0,1,.78.5c.06.06-.07.48-.21.56-.72.37-1.47.68-2.21,1l-.19.09c0,.06.07.15.13.18.57.26,1.13.54,1.71.75a2.88,2.88,0,0,0,1.15.23,8.88,8.88,0,0,0,1.14-.37c.71-.15,1.43-.28,2.15-.36a.72.72,0,0,1,.58.29.69.69,0,0,1-.15.6c-.54.54-1.12,1-1.68,1.56-.06.05-.13.15-.11.2a.27.27,0,0,0,.19.13c.64.07,1.28.16,1.92.17a2.29,2.29,0,0,0,1.2-.16c.92-.52,1.76-1.16,2.66-1.71.16-.1.56-.08.64,0s.32.61.22.8a20.25,20.25,0,0,1-1.15,1.8c-.05.06,0,.17,0,.25a1,1,0,0,0,.24,0c.77-.18,1.54-.35,2.3-.55a1.3,1.3,0,0,0,.58-.31c.75-.83,1.48-1.69,2.23-2.52.11-.13.42-.27.47-.23s.45.44.42.64a20.25,20.25,0,0,1-.4,2.06,2.06,2.06,0,0,0,0,.35,1.16,1.16,0,0,0,.37-.07,11.63,11.63,0,0,0,1-.67c.6-.43,1.41-.6,1.65-1.48a22.13,22.13,0,0,1,.9-2.39c.09-.21.32-.36.48-.54.15.16.39.3.42.48.14.75.22,1.52.33,2.28a1,1,0,0,0,.13.3c.08-.05.18-.07.23-.14.41-.49.78-1,1.23-1.48a2.39,2.39,0,0,0,.81-1.85,14.45,14.45,0,0,1,.27-2.77c.11-.76,0-1-.75-.94a2.27,2.27,0,0,0-.45,0,.9.9,0,0,0-.47.22,13.43,13.43,0,0,1-10.55,4.72,12.91,12.91,0,0,1-6.33-1.65,13.35,13.35,0,0,1-6.61-8.5,13.7,13.7,0,0,1,2.94-12.55A12.77,12.77,0,0,1,87.36,26a13.31,13.31,0,0,1,2.7-.66,10.56,10.56,0,0,1,4.44.15c1.18.36,2.36.74,3.53,1.13,1,.32,1.6,1.32,2.78,1.16.39-.05.57-.12.5-.52a1.37,1.37,0,0,1,1-1.62c.44-.18.87-.39,1.31-.59a.24.24,0,0,0,.13-.15s-.05-.1-.1-.12c-.84-.4-1.68-.8-2.53-1.18a.39.39,0,0,0-.28,0c-.95.28-1.89.61-2.86.82-.27.06-.62-.21-.93-.33a3.33,3.33,0,0,1,.44-.93,13.42,13.42,0,0,1,1.25-1.13.31.31,0,0,0,.08-.24s-.12-.08-.19-.09c-.51-.06-1-.12-1.54-.16a3.1,3.1,0,0,0-1.45,0c-.94.47-1.78,1.13-2.69,1.68-.18.11-.64.12-.71,0a1,1,0,0,1-.09-.82c.29-.63.67-1.21,1-1.81,0-.05,0-.14,0-.21a.81.81,0,0,0-.22,0,7.26,7.26,0,0,1-1,.26,3.16,3.16,0,0,0-2.68,1.44A9.52,9.52,0,0,1,88,23.7a.9.9,0,0,1-.66.15c-.12,0-.35-.23-.33-.33.12-.81.28-1.63.43-2.44a.91.91,0,0,0,0-.23.93.93,0,0,0-.24,0c-.7.41-1.42.82-2.11,1.26a1.45,1.45,0,0,0-.61.56c-.34.84-.59,1.71-.94,2.55a3.11,3.11,0,0,1-.69.77c-.22-.24-.57-.46-.63-.75a9.36,9.36,0,0,1-.11-1.68,1.13,1.13,0,0,0-.12-.25c-.09.05-.2.07-.26.14-.32.31-.62.64-.93,1s-.74.56-.87.93a10.12,10.12,0,0,0-.35,1.93h.08c0,.43,0,.86,0,1.28a1.38,1.38,0,0,1-.2.45,1.56,1.56,0,0,1-.45-.28c-.45-.66-.87-1.33-1.31-2a.27.27,0,0,0-.17-.1s-.08.07-.1.12c-.26.65-.46,1.33-.78,1.95A3.64,3.64,0,0,0,76.63,31.27Z"/><path d="M46.78,33.53a2.69,2.69,0,0,0-1.13,1.16,3.27,3.27,0,0,0-.4,1.57,3.67,3.67,0,0,0,.4,1.79,2.57,2.57,0,0,0,1.16,1.12,3.5,3.5,0,0,0,1.61.38,3.05,3.05,0,0,0,2.27-.91,3.4,3.4,0,0,0,0-4.6,3.1,3.1,0,0,0-2.29-.91A3.42,3.42,0,0,0,46.78,33.53Zm2.7,1.41a2.45,2.45,0,0,1,0,2.8,1.34,1.34,0,0,1-1.06.49,1.36,1.36,0,0,1-1.07-.49,2.45,2.45,0,0,1,0-2.8,1.38,1.38,0,0,1,1.07-.48A1.36,1.36,0,0,1,49.48,34.94Z"/><path d="M55.06,39.55a2.27,2.27,0,0,0,1-.25,2.47,2.47,0,0,0,.89-.79v.9h1.51V30.94H56.87V34a2.31,2.31,0,0,0-1.78-.86,2.38,2.38,0,0,0-1.86.82,3.42,3.42,0,0,0-.74,2.37,3.49,3.49,0,0,0,.76,2.38A2.33,2.33,0,0,0,55.06,39.55Zm-.52-4.71a1.22,1.22,0,0,1,1-.46,1.2,1.2,0,0,1,1,.46,2.45,2.45,0,0,1,.38,1.53,2.21,2.21,0,0,1-.39,1.42,1.19,1.19,0,0,1-1,.48,1.21,1.21,0,0,1-1.09-.64,2.68,2.68,0,0,1-.28-1.42A2.05,2.05,0,0,1,54.54,34.84Z"/><path d="M61.56,33.24a4.2,4.2,0,0,0,.12-1.12V31H60.05v1.62h.79a1.36,1.36,0,0,1-.22.78,1.31,1.31,0,0,1-.7.44l.32.68A2.69,2.69,0,0,0,61.1,34,1.74,1.74,0,0,0,61.56,33.24Z"/><path d="M67.6,36.29a4.49,4.49,0,0,0-1.81-.73,6.14,6.14,0,0,1-1.52-.45.37.37,0,0,1-.16-.3.4.4,0,0,1,.18-.33,1.77,1.77,0,0,1,.92-.18,1.4,1.4,0,0,1,.78.19,1,1,0,0,1,.38.55l1.53-.28a2.13,2.13,0,0,0-.84-1.22,3.47,3.47,0,0,0-1.88-.41,2.89,2.89,0,0,0-2,.55A1.7,1.7,0,0,0,62.6,35a1.57,1.57,0,0,0,.73,1.38,8.76,8.76,0,0,0,2.49.79,1.28,1.28,0,0,1,.54.22.41.41,0,0,1,.12.3.51.51,0,0,1-.22.44,1.61,1.61,0,0,1-.94.23,1.42,1.42,0,0,1-.9-.25,1.18,1.18,0,0,1-.42-.72l-1.63.25a2.34,2.34,0,0,0,1,1.38,3.43,3.43,0,0,0,2,.51A3.13,3.13,0,0,0,67.4,39a1.87,1.87,0,0,0,.71-1.46A1.48,1.48,0,0,0,67.6,36.29Z"/><path d="M89,36.56V42.7h1.63V40.81a9.83,9.83,0,0,1,.13-2.06,1.31,1.31,0,0,1,.37-.68.9.9,0,0,1,.58-.19,1.44,1.44,0,0,1,.77.27l.5-1.42a2.1,2.1,0,0,0-1.07-.31,1.27,1.27,0,0,0-.7.2,2.53,2.53,0,0,0-.7.82v-.88Z"/><path d="M95.47,39.1a5.38,5.38,0,0,0-1.29.37,1.78,1.78,0,0,0-.4,2.86,2.09,2.09,0,0,0,1.49.51,2.43,2.43,0,0,0,1-.2,2.87,2.87,0,0,0,.9-.61s0,.1,0,.19a4.36,4.36,0,0,0,.16.48H99a3.43,3.43,0,0,1-.3-.82,6.94,6.94,0,0,1-.07-1.19v-1.9a3.48,3.48,0,0,0-.21-1.46,1.68,1.68,0,0,0-.75-.65,3.94,3.94,0,0,0-1.62-.26,3.2,3.2,0,0,0-1.81.43,2.32,2.32,0,0,0-.85,1.32l1.47.27a1.11,1.11,0,0,1,.4-.6,1.09,1.09,0,0,1,.67-.17,1.37,1.37,0,0,1,.88.2.84.84,0,0,1,.23.66v.17A10.12,10.12,0,0,1,95.47,39.1Zm1.58,1a2.78,2.78,0,0,1-.07.79,1.06,1.06,0,0,1-.38.54,1.45,1.45,0,0,1-.84.29.92.92,0,0,1-.65-.25.79.79,0,0,1-.25-.59.67.67,0,0,1,.31-.57,2.89,2.89,0,0,1,.89-.29,8.57,8.57,0,0,0,1-.25Z"/><path d="M102.21,35.5a.7.7,0,0,1,.51-.17,3.33,3.33,0,0,1,.75.09l.22-1.13a4.54,4.54,0,0,0-1.36-.21,2.32,2.32,0,0,0-1.12.24,1.3,1.3,0,0,0-.61.62,3.12,3.12,0,0,0-.16,1.16v.46h-.91v1.28h.91V42.7h1.62V37.84h1.22V36.56h-1.22v-.43A1,1,0,0,1,102.21,35.5Z"/><path d="M103.52,37.86h.74v2.68a6.82,6.82,0,0,0,.06,1.14,1.41,1.41,0,0,0,.23.63,1.16,1.16,0,0,0,.51.39,2.24,2.24,0,0,0,.8.14,3.28,3.28,0,0,0,1.28-.24L107,41.34a2.28,2.28,0,0,1-.65.16.45.45,0,0,1-.28-.09.35.35,0,0,1-.14-.2,6.58,6.58,0,0,1,0-.88V37.86H107v-1.3H105.9V34.39l-1.64,1v1.22h-.74Z"/><path d="M111.45,41.44a1.64,1.64,0,0,1-1,.23,1.41,1.41,0,0,1-.89-.25,1.18,1.18,0,0,1-.42-.72l-1.63.25a2.34,2.34,0,0,0,1,1.38,3.42,3.42,0,0,0,2,.51,3.14,3.14,0,0,0,2.09-.6,1.87,1.87,0,0,0,.71-1.46,1.48,1.48,0,0,0-.51-1.2,4.49,4.49,0,0,0-1.81-.73,6.14,6.14,0,0,1-1.52-.45.37.37,0,0,1-.16-.3.4.4,0,0,1,.18-.33,1.77,1.77,0,0,1,.92-.18,1.4,1.4,0,0,1,.78.19,1,1,0,0,1,.38.55l1.53-.28a2.13,2.13,0,0,0-.84-1.22,3.47,3.47,0,0,0-1.88-.41,2.89,2.89,0,0,0-2,.55,1.7,1.7,0,0,0-.63,1.34,1.57,1.57,0,0,0,.73,1.38,8.76,8.76,0,0,0,2.49.79,1.28,1.28,0,0,1,.54.22.41.41,0,0,1,.12.3A.52.52,0,0,1,111.45,41.44Z"/><path d="M116.22,39.72a4.65,4.65,0,0,1,.13-1.27,1.12,1.12,0,0,1,.43-.58,1.18,1.18,0,0,1,.68-.2.93.93,0,0,1,.5.12.73.73,0,0,1,.26.39,4.56,4.56,0,0,1,.09,1.16V42.7h1.63v-3a4.29,4.29,0,0,1,.13-1.26,1.13,1.13,0,0,1,1.08-.82.76.76,0,0,1,.69.34,2.63,2.63,0,0,1,.17,1.18V42.7h1.62V38.78a3.28,3.28,0,0,0-.17-1.27,1.6,1.6,0,0,0-.7-.81,2.24,2.24,0,0,0-1.14-.28,2,2,0,0,0-1,.25,2.78,2.78,0,0,0-.87.73,1.87,1.87,0,0,0-.72-.73,2,2,0,0,0-1-.25,2.4,2.4,0,0,0-1.91,1v-.84h-1.5V42.7h1.62Z"/><path d="M127.06,39.1a5.38,5.38,0,0,0-1.29.37,1.71,1.71,0,0,0-.7.63,1.8,1.8,0,0,0-.25.93,1.74,1.74,0,0,0,.55,1.3,2.09,2.09,0,0,0,1.49.51,2.51,2.51,0,0,0,1-.2,3,3,0,0,0,.89-.61l.06.19a4.89,4.89,0,0,0,.15.48h1.61a3.37,3.37,0,0,1-.29-.82,5.86,5.86,0,0,1-.08-1.19l0-1.9a3.45,3.45,0,0,0-.22-1.46,1.68,1.68,0,0,0-.75-.65,3.88,3.88,0,0,0-1.62-.26,3.14,3.14,0,0,0-1.8.43,2.33,2.33,0,0,0-.86,1.32l1.48.27a1.16,1.16,0,0,1,.39-.6,1.12,1.12,0,0,1,.68-.17,1.36,1.36,0,0,1,.87.2.84.84,0,0,1,.23.66v.17A9.82,9.82,0,0,1,127.06,39.1Zm1.58,1a3.38,3.38,0,0,1-.06.79,1.08,1.08,0,0,1-.39.54,1.45,1.45,0,0,1-.84.29.92.92,0,0,1-.65-.25.79.79,0,0,1-.25-.59.66.66,0,0,1,.32-.57,2.8,2.8,0,0,1,.88-.29,8.57,8.57,0,0,0,1-.25Z"/><path d="M133.45,39.92a5,5,0,0,1,.13-1.41,1.11,1.11,0,0,1,.46-.61,1.23,1.23,0,0,1,.75-.23,1,1,0,0,1,.57.16,1,1,0,0,1,.34.45,5.47,5.47,0,0,1,.1,1.29V42.7h1.62V38.89a5.13,5.13,0,0,0-.09-1.1,1.83,1.83,0,0,0-.31-.68,1.71,1.71,0,0,0-.68-.49,2.38,2.38,0,0,0-1-.2,2.46,2.46,0,0,0-2,1v-.9h-1.51V42.7h1.62Z"/><polygon points="15.86 64.28 12.51 64.28 12.51 60.95 10.8 60.95 10.8 69.43 12.51 69.43 12.51 65.72 15.86 65.72 15.86 69.43 17.57 69.43 17.57 60.95 15.86 60.95 15.86 64.28"/><path d="M22.12,63.15a3.39,3.39,0,0,0-1.63.39,2.75,2.75,0,0,0-1.13,1.16,3.3,3.3,0,0,0-.4,1.57,3.67,3.67,0,0,0,.4,1.79,2.52,2.52,0,0,0,1.16,1.12,3.5,3.5,0,0,0,1.61.38,3.05,3.05,0,0,0,2.27-.91,3.19,3.19,0,0,0,.89-2.31,3.11,3.11,0,0,0-.89-2.29A3.06,3.06,0,0,0,22.12,63.15Zm1.07,4.6a1.4,1.4,0,0,1-2.13,0,2.43,2.43,0,0,1,0-2.79,1.4,1.4,0,0,1,2.13,0,2,2,0,0,1,.43,1.38A2,2,0,0,1,23.19,67.75Z"/><path d="M34.61,63.42a2.24,2.24,0,0,0-1.14-.27,2.14,2.14,0,0,0-1,.24,2.83,2.83,0,0,0-.88.73,1.85,1.85,0,0,0-.71-.73,2.08,2.08,0,0,0-1-.24,2.42,2.42,0,0,0-1.92,1v-.84H26.45v6.15h1.62v-3a4.16,4.16,0,0,1,.13-1.26,1.14,1.14,0,0,1,.43-.59,1.23,1.23,0,0,1,.68-.2.79.79,0,0,1,.49.13.73.73,0,0,1,.27.38,4.56,4.56,0,0,1,.09,1.16v3.37h1.62v-3a4.3,4.3,0,0,1,.14-1.27,1.1,1.1,0,0,1,.43-.61,1.09,1.09,0,0,1,.64-.21.78.78,0,0,1,.7.35,2.65,2.65,0,0,1,.16,1.18v3.51h1.63V65.5a3.49,3.49,0,0,0-.17-1.27A1.64,1.64,0,0,0,34.61,63.42Z"/><path d="M41.6,64.05a2.74,2.74,0,0,0-2.16-.9,2.62,2.62,0,0,0-2,.86,3.4,3.4,0,0,0-.8,2.39,3.57,3.57,0,0,0,.61,2.12,2.73,2.73,0,0,0,2.37,1,2.9,2.9,0,0,0,1.69-.46,2.64,2.64,0,0,0,1-1.36l-1.62-.27a1.25,1.25,0,0,1-.39.67,1,1,0,0,1-.64.21,1.22,1.22,0,0,1-.94-.4,1.64,1.64,0,0,1-.39-1.13h4.07A4,4,0,0,0,41.6,64.05Zm-3.28,1.78a1.46,1.46,0,0,1,.34-1,1.12,1.12,0,0,1,.88-.39,1.09,1.09,0,0,1,.84.37,1.6,1.6,0,0,1,.37,1.07Z"/><rect x="46.93" y="60.95" width="1.71" height="8.48"/><path d="M58.31,63.42a2.28,2.28,0,0,0-1.15-.27,2.2,2.2,0,0,0-1,.24,2.92,2.92,0,0,0-.87.73,1.85,1.85,0,0,0-.71-.73,2.08,2.08,0,0,0-1-.24,2.42,2.42,0,0,0-1.92,1v-.84h-1.5v6.15h1.63v-3a4.16,4.16,0,0,1,.13-1.26,1.14,1.14,0,0,1,.43-.59,1.23,1.23,0,0,1,.68-.2.81.81,0,0,1,.49.13.73.73,0,0,1,.27.38,4.56,4.56,0,0,1,.09,1.16v3.37h1.62v-3a4.76,4.76,0,0,1,.13-1.27,1.17,1.17,0,0,1,.44-.61,1.09,1.09,0,0,1,.64-.21.75.75,0,0,1,.69.35,2.47,2.47,0,0,1,.17,1.18v3.51h1.63V65.5A3.49,3.49,0,0,0,59,64.23,1.69,1.69,0,0,0,58.31,63.42Z"/><path d="M64.18,63.15a2.24,2.24,0,0,0-1.12.28,2.43,2.43,0,0,0-.8.76v-.91H60.75v8.48h1.62V68.67a3.11,3.11,0,0,0,.87.69,2,2,0,0,0,.93.2A2.33,2.33,0,0,0,66,68.71a3.49,3.49,0,0,0,.75-2.39A3.39,3.39,0,0,0,66,64,2.34,2.34,0,0,0,64.18,63.15Zm.53,4.67a1.18,1.18,0,0,1-.94.46,1.25,1.25,0,0,1-1-.5,2.33,2.33,0,0,1-.41-1.53,2.06,2.06,0,0,1,.39-1.36,1.23,1.23,0,0,1,1-.46,1.21,1.21,0,0,1,1,.47,2.2,2.2,0,0,1,.39,1.43A2.34,2.34,0,0,1,64.71,67.82Z"/><path d="M70.17,63.34a2.65,2.65,0,0,0-.7.82v-.88H68v6.15h1.63v-1.9a9.83,9.83,0,0,1,.13-2.06,1.35,1.35,0,0,1,.37-.68,1,1,0,0,1,.58-.19,1.44,1.44,0,0,1,.77.27l.5-1.42a2.09,2.09,0,0,0-1.07-.3A1.27,1.27,0,0,0,70.17,63.34Z"/><path d="M75.43,63.15a3.42,3.42,0,0,0-1.64.39,2.81,2.81,0,0,0-1.13,1.16,3.42,3.42,0,0,0-.4,1.57,3.79,3.79,0,0,0,.4,1.79,2.59,2.59,0,0,0,1.17,1.12,3.47,3.47,0,0,0,1.61.38,3,3,0,0,0,2.26-.91,3.4,3.4,0,0,0,0-4.6A3.06,3.06,0,0,0,75.43,63.15Zm1.07,4.6a1.36,1.36,0,0,1-1.07.49,1.37,1.37,0,0,1-1.07-.49,2.48,2.48,0,0,1,0-2.79,1.37,1.37,0,0,1,1.07-.49A1.36,1.36,0,0,1,76.5,65a2,2,0,0,1,.43,1.38A2,2,0,0,1,76.5,67.75Z"/><path d="M82.63,66.42c-.07.17-.12.35-.18.52s-.08.26-.17.53l-.33-1-1.16-3.14h-1.7l2.47,6.15H83l2.45-6.15H83.79Z"/><path d="M91,64.05a2.71,2.71,0,0,0-2.16-.9,2.63,2.63,0,0,0-2,.86A3.4,3.4,0,0,0,86,66.4a3.56,3.56,0,0,0,.6,2.12,2.75,2.75,0,0,0,2.37,1,2.9,2.9,0,0,0,1.69-.46,2.65,2.65,0,0,0,1-1.36L90,67.47a1.25,1.25,0,0,1-.4.67,1,1,0,0,1-.64.21A1.25,1.25,0,0,1,88,68a1.64,1.64,0,0,1-.39-1.13h4.07A4,4,0,0,0,91,64.05Zm-3.28,1.78a1.51,1.51,0,0,1,.34-1,1.13,1.13,0,0,1,.88-.39,1.09,1.09,0,0,1,.84.37,1.5,1.5,0,0,1,.37,1.07Z"/><path d="M101.09,63.42a2.24,2.24,0,0,0-1.14-.27,2.14,2.14,0,0,0-1,.24,2.83,2.83,0,0,0-.88.73,1.85,1.85,0,0,0-.71-.73,2.08,2.08,0,0,0-1-.24,2.42,2.42,0,0,0-1.92,1v-.84H92.93v6.15h1.62v-3a4.16,4.16,0,0,1,.13-1.26,1.14,1.14,0,0,1,.43-.59,1.23,1.23,0,0,1,.68-.2.79.79,0,0,1,.49.13.73.73,0,0,1,.27.38,4.56,4.56,0,0,1,.09,1.16v3.37h1.62v-3a4.3,4.3,0,0,1,.14-1.27,1.1,1.1,0,0,1,.43-.61,1.09,1.09,0,0,1,.64-.21.77.77,0,0,1,.7.35,2.65,2.65,0,0,1,.16,1.18v3.51H102V65.5a3.49,3.49,0,0,0-.17-1.27A1.64,1.64,0,0,0,101.09,63.42Z"/><path d="M108.08,64.05a2.74,2.74,0,0,0-2.16-.9,2.62,2.62,0,0,0-2,.86,3.4,3.4,0,0,0-.8,2.39,3.57,3.57,0,0,0,.61,2.12,2.73,2.73,0,0,0,2.37,1,2.9,2.9,0,0,0,1.69-.46,2.64,2.64,0,0,0,1-1.36l-1.62-.27a1.25,1.25,0,0,1-.39.67,1,1,0,0,1-.64.21,1.22,1.22,0,0,1-.94-.4,1.64,1.64,0,0,1-.39-1.13h4.07A4,4,0,0,0,108.08,64.05Zm-3.28,1.78a1.46,1.46,0,0,1,.34-1,1.12,1.12,0,0,1,.88-.39,1.09,1.09,0,0,1,.84.37,1.6,1.6,0,0,1,.37,1.07Z"/><path d="M111.66,64.19v-.91h-1.51v6.15h1.63V66.64a5.54,5.54,0,0,1,.12-1.41,1.16,1.16,0,0,1,.46-.61,1.36,1.36,0,0,1,.76-.23.93.93,0,0,1,.56.16A.89.89,0,0,1,114,65a4.66,4.66,0,0,1,.11,1.28v3.14h1.62V65.61a5,5,0,0,0-.09-1.09,1.82,1.82,0,0,0-.32-.69,1.6,1.6,0,0,0-.67-.49,2.53,2.53,0,0,0-3,.85Z"/><path d="M119.56,68.22a.51.51,0,0,1-.28-.08.41.41,0,0,1-.14-.21,5.61,5.61,0,0,1,0-.87V64.58h1.11v-1.3H119.1V61.12l-1.63.94v1.22h-.74v1.3h.74v2.68a6.82,6.82,0,0,0,.06,1.14,1.5,1.5,0,0,0,.22.64,1.26,1.26,0,0,0,.52.38,2,2,0,0,0,.79.14,3.3,3.3,0,0,0,1.29-.24l-.14-1.26A2,2,0,0,1,119.56,68.22Z"/><path d="M121.3,69.43h.79a1.35,1.35,0,0,1-.22.77,1.38,1.38,0,0,1-.7.45l.32.67a2.69,2.69,0,0,0,.86-.51,1.84,1.84,0,0,0,.46-.73,4.2,4.2,0,0,0,.12-1.12V67.8H121.3Z"/><polygon points="129.04 63.12 127.75 63.12 127.75 69.43 132.23 69.43 132.23 68.36 129.04 68.36 129.04 63.12"/><polygon points="134.46 63.12 133.18 63.12 133.18 69.43 137.66 69.43 137.66 68.36 134.46 68.36 134.46 63.12"/><path d="M141.24,69.53a2.67,2.67,0,0,0,1.69-.5,2.75,2.75,0,0,0,.95-1.55l-1.24-.39a1.9,1.9,0,0,1-.53,1,1.28,1.28,0,0,1-.88.33,1.42,1.42,0,0,1-1.13-.51,2.7,2.7,0,0,1-.43-1.72,2.53,2.53,0,0,1,.44-1.65,1.47,1.47,0,0,1,1.15-.5,1.35,1.35,0,0,1,.87.28,1.41,1.41,0,0,1,.47.78l1.27-.3a2.53,2.53,0,0,0-.65-1.17,2.66,2.66,0,0,0-1.9-.69,2.78,2.78,0,0,0-2.15.88,3.43,3.43,0,0,0-.82,2.46,3.34,3.34,0,0,0,.81,2.37A2.72,2.72,0,0,0,141.24,69.53Z"/><path d="M76.72.05l-.16,0L0,25V75.42l76.41,25,.15.05,76.57-25V25Zm75.42,74.66L76.56,99.39,1,74.71v-49L76.56,1l75.58,24.69Z"/></g></g></svg>